<svg xmlns="http://www.w3.org/2000/svg" viewBox="0 0 660 870" role="img" aria-labelledby="title desc"><title id="title">つながりフェスタ ブース番号入り配置図</title><desc id="desc">3D会場の配置をもとにした案内図。校舎、体育館、校庭、ブース、入口を表示。</desc><style>text{font-family:sans-serif;fill:#234a44} .label{font-size:13px;font-weight:bold;paint-order:stroke;stroke:#fffdf5;stroke-width:3px;stroke-linejoin:round} .id{font-size:9px;font-weight:bold;fill:white}</style><rect width="660" height="870" fill="#faf8f0"/><text x="32" y="32" font-size="23" font-weight="bold">つながりフェスタ　配置図</text><text x="32" y="53" font-size="12">3D会場の配置案をもとにした案内図</text><g transform="translate(25 35)">
<polygon points="103,69 131,47 202,40 331,44 479,94 574,146 583,632 592,679 470,739 101,780 71,735 21,525 30,339 57,250 63,145 116,123 95,101" fill="#dce2d3" stroke="#9bad9b"/>
<polygon points="64.0,146.0 147.0,146.0 175.0,83.0 286.0,78.0 382.0,92.0 491.0,128.0 575.0,167.0 575.0,300.0 470.0,302.0 469.0,412.0 430.0,431.0 425.0,407.0 260.0,408.0 223.0,418.0 170.0,413.0 99.0,420.0 98.0,388.0 66.0,388.0 64.0,350.0" fill="#e8d9b8" stroke="#9bad9b"/>
<polygon points="171,88.456 281,77.000 395,92.862 452,121.943 458,166.886 436,176.579 330,176.579 281,162.480 245,142.211 176,141.330" fill="#b8cbb3" stroke="#9bad9b"/>
<text class="label" x="252" y="124">モビリティー</text><text x="261" y="143" font-size="11">車両実走路</text>
<rect x="95.4" y="436.56" width="234.11999999999998" height="53.160000000000025" fill="#bac7c1" stroke="#7e9690"/>
<rect x="30.48" y="411.36" width="52.08" height="130.19999999999993" fill="#bac7c1" stroke="#7e9690"/>
<rect x="67.32" y="389.4" width="28.080000000000013" height="47.160000000000025" fill="#bac7c1" stroke="#7e9690"/>
<rect x="329.52" y="430.32" width="95.75999999999999" height="86.04000000000002" fill="#bac7c1" stroke="#7e9690"/>
<rect x="307.92" y="489.72" width="21.599999999999966" height="26.639999999999986" fill="#bac7c1" stroke="#7e9690"/>
<rect x="311.52" y="535.08" width="79.20000000000005" height="68.51999999999998" fill="#bac7c1" stroke="#7e9690"/>
<rect x="103.44" y="608.28" width="297.6" height="57.82000000000005" fill="#bac7c1" stroke="#7e9690"/>
<rect x="470" y="302" width="105" height="202" fill="#c8c1d1" stroke="#887993"/><text class="label" x="495" y="399">体育館</text><text class="label" x="191" y="468">校舎</text><text class="label" x="200" y="640">校舎</text><text class="label" x="322" y="563">昇降口</text><text class="label" x="319" y="582">正面玄関</text>
<g transform="translate(-10 0)"><rect x="404" y="590" width="26" height="12" rx="2" fill="#a64c35"/><text class="id" x="417" y="599" text-anchor="middle">F-1</text></g>
<rect x="475" y="611" width="26" height="12" rx="2" fill="#a64c35"/><text class="id" x="488" y="620" text-anchor="middle">F-2</text>
<g transform="translate(-8 0)"><rect x="428" y="635" width="26" height="12" rx="2" fill="#a64c35"/><text class="id" x="441" y="644" text-anchor="middle">F-3</text></g>
<g transform="translate(-5 0)"><rect x="475" y="571" width="26" height="12" rx="2" fill="#a64c35"/><text class="id" x="488" y="580" text-anchor="middle">F-4</text></g>
<g transform="translate(-5 0)"><rect x="475" y="592" width="26" height="12" rx="2" fill="#a64c35"/><text class="id" x="488" y="601" text-anchor="middle">F-5</text></g>
<g transform="translate(-6 0)"><rect x="448" y="651" width="26" height="12" rx="2" fill="#a64c35"/><text class="id" x="461" y="660" text-anchor="middle">F-6</text></g>
<g transform="translate(-4 0)"><rect x="478" y="551" width="26" height="12" rx="2" fill="#a64c35"/><text class="id" x="491" y="560" text-anchor="middle">F-7</text></g>
<g transform="translate(-4 0)"><rect x="446" y="301.0" width="26" height="12" rx="2" fill="#a64c35"/><text class="id" x="459" y="310.0" text-anchor="middle">F-8</text></g>
<g transform="translate(-26 0)"><rect x="283" y="319" width="26" height="12" rx="2" fill="#a64c35"/><text class="id" x="296" y="328" text-anchor="middle">F-9</text></g>
<g transform="translate(-26 0)"><rect x="283" y="241" width="26" height="12" rx="2" fill="#a64c35"/><text class="id" x="296" y="250" text-anchor="middle">F-10</text></g>
<g transform="translate(-4 0)"><rect x="446" y="287.0" width="26" height="12" rx="2" fill="#a64c35"/><text class="id" x="459" y="296.0" text-anchor="middle">F-11</text></g>
<g transform="translate(-26 0)"><rect x="283" y="305" width="26" height="12" rx="2" fill="#a64c35"/><text class="id" x="296" y="314" text-anchor="middle">F-12</text></g>
<g transform="translate(-4 0)"><rect x="446" y="315.0" width="26" height="12" rx="2" fill="#a64c35"/><text class="id" x="459" y="324.0" text-anchor="middle">F-13</text></g>
<g transform="translate(-26 0)"><rect x="283" y="291" width="26" height="12" rx="2" fill="#a64c35"/><text class="id" x="296" y="300" text-anchor="middle">F-14</text></g>
<g transform="translate(-15 0)"><rect x="412" y="614" width="26" height="12" rx="2" fill="#a64c35"/><text class="id" x="425" y="623" text-anchor="middle">F-15</text></g>
<g transform="translate(-26 0)"><rect x="283" y="219" width="26" height="12" rx="2" fill="#385e76"/><text class="id" x="296" y="228" text-anchor="middle">S-1</text></g>
<g transform="translate(-11 -8)"><circle cx="368.0" cy="198.0" r="3" fill="#385e76"/><text x="368.0" y="192.0" transform="rotate(-65 368.0 192.0)" font-size="9" font-weight="bold">S-2</text></g>
<g transform="translate(-11 -8)"><circle cx="424.0" cy="198.0" r="3" fill="#385e76"/><text x="424.0" y="192.0" transform="rotate(-65 424.0 192.0)" font-size="9" font-weight="bold">S-3</text></g>
<g transform="translate(-23 0)"><rect x="465" y="216" width="26" height="28" rx="2" fill="#385e76"/><text class="id" x="478" y="233.0" text-anchor="middle">S-4</text></g>
<g transform="translate(-11 -8)"><circle cx="354.0" cy="198.0" r="3" fill="#385e76"/><text x="354.0" y="192.0" transform="rotate(-65 354.0 192.0)" font-size="9" font-weight="bold">S-5</text></g>
<g transform="translate(-11 -8)"><circle cx="382.0" cy="198.0" r="3" fill="#385e76"/><text x="382.0" y="192.0" transform="rotate(-65 382.0 192.0)" font-size="9" font-weight="bold">S-6</text></g>
<g transform="translate(-26 0)"><rect x="283" y="277" width="26" height="12" rx="2" fill="#385e76"/><text class="id" x="296" y="286" text-anchor="middle">S-7</text></g>
<g transform="translate(-11 -8)"><circle cx="452.0" cy="198.0" r="3" fill="#385e76"/><text x="452.0" y="192.0" transform="rotate(-65 452.0 192.0)" font-size="9" font-weight="bold">S-8</text></g>
<g transform="translate(-11 -8)"><circle cx="340.0" cy="198.0" r="3" fill="#385e76"/><text x="340.0" y="192.0" transform="rotate(-65 340.0 192.0)" font-size="9" font-weight="bold">S-9</text></g>
<g transform="translate(-11 -8)"><circle cx="438.0" cy="198.0" r="3" fill="#385e76"/><text x="438.0" y="192.0" transform="rotate(-65 438.0 192.0)" font-size="9" font-weight="bold">S-10</text></g>
<g transform="translate(-11 -8)"><circle cx="312.0" cy="198.0" r="3" fill="#385e76"/><text x="312.0" y="192.0" transform="rotate(-65 312.0 192.0)" font-size="9" font-weight="bold">S-11</text></g>
<g transform="translate(-11 -8)"><circle cx="466.0" cy="198.0" r="3" fill="#385e76"/><text x="466.0" y="192.0" transform="rotate(-65 466.0 192.0)" font-size="9" font-weight="bold">S-12</text></g>
<circle cx="326.0" cy="367.0" r="3" fill="#4e6c43"/><text x="326.0" y="361.0" transform="rotate(-65 326.0 361.0)" font-size="9" font-weight="bold">T-1</text>
<g transform="translate(-23 0)"><rect x="465" y="273.0" width="26" height="12" rx="2" fill="#4e6c43"/><text class="id" x="478" y="282.0" text-anchor="middle">T-2</text></g>
<g transform="translate(-23 0)"><rect x="465" y="259.0" width="26" height="12" rx="2" fill="#4e6c43"/><text class="id" x="478" y="268.0" text-anchor="middle">T-3</text></g>
<g transform="translate(-11 -8)"><circle cx="410.0" cy="198.0" r="3" fill="#4e6c43"/><text x="410.0" y="192.0" transform="rotate(-65 410.0 192.0)" font-size="9" font-weight="bold">T-4</text></g>
<rect x="165" y="246" width="26" height="12" rx="2" fill="#4e6c43"/><text class="id" x="178" y="255" text-anchor="middle">T-5</text>
<g transform="translate(-11 -8)"><circle cx="326.0" cy="198.0" r="3" fill="#4e6c43"/><text x="326.0" y="192.0" transform="rotate(-65 326.0 192.0)" font-size="9" font-weight="bold">T-6</text></g>
<circle cx="312.0" cy="367.0" r="3" fill="#4e6c43"/><text x="312.0" y="361.0" transform="rotate(-65 312.0 361.0)" font-size="9" font-weight="bold">T-7</text>
<circle cx="298.0" cy="367.0" r="3" fill="#4e6c43"/><text x="298.0" y="361.0" transform="rotate(-65 298.0 361.0)" font-size="9" font-weight="bold">T-8</text>
<circle cx="353.0" cy="367.0" r="3" fill="#4e6c43"/><text x="353.0" y="361.0" transform="rotate(-65 353.0 361.0)" font-size="9" font-weight="bold">T-9</text>
<g transform="translate(-11 -8)"><circle cx="396.0" cy="198.0" r="3" fill="#4e6c43"/><text x="396.0" y="192.0" transform="rotate(-65 396.0 192.0)" font-size="9" font-weight="bold">T-10</text></g>
<g transform="translate(-26 0)"><rect x="283" y="263" width="26" height="12" rx="2" fill="#4e6c43"/><text class="id" x="296" y="272" text-anchor="middle">T-12</text></g>
<circle cx="340.0" cy="367.0" r="3" fill="#4e6c43"/><text x="340.0" y="361.0" transform="rotate(-65 340.0 361.0)" font-size="9" font-weight="bold">T-13</text>
<g transform="translate(-23 0)"><rect x="465" y="245.0" width="26" height="12" rx="2" fill="#4e6c43"/><text class="id" x="478" y="254.0" text-anchor="middle">T-14</text></g>
<rect x="137" y="64" width="26" height="12" rx="2" fill="#4e6c43"/><text class="id" x="150" y="73" text-anchor="middle">T-15</text>
<circle cx="284.0" cy="367.0" r="3" fill="#4e6c43"/><text x="284.0" y="361.0" transform="rotate(-65 284.0 361.0)" font-size="9" font-weight="bold">T-16</text>
<text class="label" x="74" y="100">西ヶ谷門</text>
<text class="label" x="523" y="655">正門</text>
<text class="label" x="332" y="239">屋外ステージ</text>
<text class="label" x="335" y="282">イートイン1</text>
<text class="label" x="360" y="371">本部</text>
<text class="label" x="409" y="554">イートイン2</text>
<text class="label" x="474" y="490">トイレ</text>
<g fill="none">
<polyline points="171,88.456 281,77.000 395,92.862 452,121.943 458,166.886 436,176.579 330,176.579 281,162.480 245,142.211 176,141.330 171,88.456" stroke="#d6ad23" stroke-width="1.8"/>
<polyline points="171,88.456 281,77.000 395,92.862 452,121.943 458,166.886 436,176.579 330,176.579 281,162.480 245,142.211 176,141.330 171,88.456" stroke="#33312b" stroke-width="1.8" stroke-dasharray="3 3"/>
<line x1="160" y1="108" x2="180" y2="98" stroke="#bb3b2c" stroke-width="2.2"/>
<line x1="222" y1="85" x2="246" y2="75" stroke="#bb3b2c" stroke-width="2.2"/>
<line x1="260" y1="78" x2="282" y2="68" stroke="#bb3b2c" stroke-width="2.2"/>
<line x1="351" y1="69" x2="378" y2="83" stroke="#bb3b2c" stroke-width="2.2"/>
<line x1="397" y1="69" x2="423" y2="83" stroke="#bb3b2c" stroke-width="2.2"/>
<line x1="433" y1="96" x2="457" y2="111" stroke="#bb3b2c" stroke-width="2.2"/>
<line x1="467" y1="114" x2="493" y2="130" stroke="#bb3b2c" stroke-width="2.2"/>
<line x1="26" y1="428" x2="47" y2="428" stroke="#bb3b2c" stroke-width="2.2"/>
<line x1="502" y1="544" x2="527" y2="544" stroke="#bb3b2c" stroke-width="2.2"/>
<line x1="508" y1="573" x2="533" y2="573" stroke="#bb3b2c" stroke-width="2.2"/>
<line x1="495" y1="683" x2="520" y2="671" stroke="#bb3b2c" stroke-width="2.2"/>
<line x1="529" y1="668" x2="551" y2="656" stroke="#bb3b2c" stroke-width="2.2"/>
<line x1="565" y1="647" x2="580" y2="637" stroke="#bb3b2c" stroke-width="2.2"/>
</g>
<line x1="255" y1="720" x2="451" y2="720" stroke="#ffffff" stroke-width="1.6"/>
<path d="M105,59 L111,65 M105,65 L111,59" fill="none" stroke="#bb3b2c" stroke-width="2"/>
<path d="M449,741 L455,747 M449,747 L455,741" fill="none" stroke="#bb3b2c" stroke-width="2"/>
<rect x="257" y="333" width="26" height="12" rx="2" fill="#a64c35"/><text class="id" x="270" y="342" text-anchor="middle">F-16</text><text x="250" y="342" text-anchor="end" font-size="10">philosophy</text>
<circle cx="469" cy="190" r="3" fill="#385e76"/><text x="469" y="184" transform="rotate(-65 469 184)" font-size="9" font-weight="bold">S-13</text><text x="483" y="193" font-size="10">西鎌倉商店会</text></g><text x="34" y="816" font-size="10">[F] 飲食（キッチンカー）　[F] 飲食（テント）</text><text x="34" y="832" font-size="10">[S] 物販　[S] 有料ワークショップ・スポーツ・体験</text><text x="34" y="848" font-size="10">[T] 無料・情報・スポーツ・体験　[P] ステージ出演</text></svg>
